<svg enable-background="new 0 0 512 512" height="512" viewBox="0 0 512 512" width="512" xmlns="http://www.w3.org/2000/svg"><g><g><path d="m246 137.12v54.38c0 5.522 4.477 10 10 10s10-4.478 10-10v-54.38c18.345-4.499 32-21.074 32-40.787 0-23.159-18.841-42-42-42s-42 18.841-42 42c0 19.712 13.655 36.288 32 40.787zm10-62.788c12.131 0 22 9.869 22 22s-9.869 22-22 22-22-9.869-22-22 9.869-22 22-22z"/><path d="m56 137.12v54.38c0 5.522 4.477 10 10 10s10-4.478 10-10v-54.38c18.345-4.499 32-21.074 32-40.787 0-23.159-18.841-42-42-42s-42 18.841-42 42c0 19.712 13.655 36.288 32 40.787zm10-62.788c12.131 0 22 9.869 22 22s-9.869 22-22 22-22-9.869-22-22 9.869-22 22-22z"/><path d="m361 375.213v-53.213c0-5.522-4.477-10-10-10s-10 4.478-10 10v53.213c-18.345 4.499-32 21.074-32 40.787 0 23.159 18.841 42 42 42s42-18.841 42-42c0-19.713-13.655-36.288-32-40.787zm-10 62.787c-12.131 0-22-9.869-22-22s9.869-22 22-22 22 9.869 22 22-9.869 22-22 22z"/><path d="m171 375.213v-8.213c0-5.522-4.477-10-10-10s-10 4.478-10 10v8.213c-18.345 4.499-32 21.074-32 40.787 0 23.159 18.841 42 42 42s42-18.841 42-42c0-19.713-13.655-36.288-32-40.787zm-10 62.787c-12.131 0-22-9.869-22-22s9.869-22 22-22 22 9.869 22 22-9.869 22-22 22z"/><path d="m502 246h-23.609c-4.21-12.761-16.238-22-30.391-22s-26.181 9.239-30.391 22h-36.218c-4.21-12.761-16.238-22-30.391-22s-26.181 9.239-30.391 22h-34.218c-4.21-12.761-16.238-22-30.391-22s-26.181 9.239-30.391 22h-34.218c-4.21-12.761-16.238-22-30.391-22s-26.181 9.239-30.391 22h-36.218c-4.21-12.76-16.238-22-30.391-22s-26.181 9.239-30.391 22h-23.609c-5.523 0-10 4.478-10 10s4.477 10 10 10h23.609c4.21 12.761 16.238 22 30.391 22s26.181-9.239 30.391-22h36.218c4.21 12.761 16.238 22 30.391 22s26.181-9.239 30.391-22h34.218c4.21 12.761 16.238 22 30.391 22s26.181-9.239 30.391-22h34.218c4.21 12.761 16.238 22 30.391 22s26.181-9.239 30.391-22h36.218c4.21 12.761 16.238 22 30.391 22s26.181-9.239 30.391-22h23.609c5.523 0 10-4.478 10-10s-4.477-10-10-10zm-438 22c-6.617 0-12-5.383-12-12s5.383-12 12-12 12 5.383 12 12-5.383 12-12 12zm97 0c-6.617 0-12-5.383-12-12s5.383-12 12-12 12 5.383 12 12-5.383 12-12 12zm95 0c-6.617 0-12-5.383-12-12s5.383-12 12-12 12 5.383 12 12-5.383 12-12 12zm95 0c-6.617 0-12-5.383-12-12s5.383-12 12-12 12 5.383 12 12-5.383 12-12 12zm97 0c-6.617 0-12-5.383-12-12s5.383-12 12-12 12 5.383 12 12-5.383 12-12 12z"/><path d="m446 200c5.523 0 10-4.478 10-10v-55.563l51-29.444c3.094-1.786 5-5.088 5-8.66s-1.906-6.874-5-8.66l-56-32.333c-3.094-1.787-6.905-1.787-10 0-3.094 1.786-5 5.088-5 8.66v126c0 5.523 4.477 10 10 10zm10-118.679 26 15.012-26 15.011z"/><path d="m161 332c2.63 0 5.21-1.07 7.07-2.931 1.86-1.859 2.93-4.439 2.93-7.069s-1.07-5.21-2.93-7.07-4.44-2.93-7.07-2.93-5.21 1.069-7.07 2.93c-1.86 1.86-2.93 4.44-2.93 7.07s1.07 5.21 2.93 7.069c1.86 1.861 4.44 2.931 7.07 2.931z"/></g></g></svg>